<?xml version="1.0" encoding="utf-8"?>
<svg viewBox="0 0 500 500" xmlns="http://www.w3.org/2000/svg">
  <defs/>
  <path id="path3060" d="M 68.61 68.04 C 54 67.76 41.96 78.95 41.67 93.12 L 41.67 178.29 C 41.67 201.96 44.51 229.17 79.52 234.13 C 114.37 239.09 304.98 246.46 304.98 246.46 C 308.67 248.16 310.37 252.42 308.52 256.09 C 307.82 257.51 306.55 258.78 304.98 259.49 C 304.98 259.49 109.57 268.71 78.1 273.38 C 46.5 278.2 39.99 305.26 39.99 328.66 L 39.99 418.78 C 39.99 426.01 45.94 431.96 53.44 431.96 L 53.73 431.96 L 131.95 431.96 C 134.65 432.1 136.91 430.12 137.05 427.56 C 137.05 427.28 137.05 427.14 137.05 426.99 L 137.05 352.46 C 137.05 337 155.48 330.63 180.29 328.37 C 205.22 326.24 294.93 319.43 352.32 313.92 C 424.74 306.97 424.45 195.58 352.32 188.63 C 294.93 183.25 200.97 175.74 172.05 173.34 C 134.5 169.37 137.05 165.68 137.05 149.52 L 454.63 149.52 C 457.47 149.39 459.87 147.11 460.01 144.28 L 460.01 81.22 C 459.87 73.85 453.78 68.04 446.27 68.04 L 68.61 68.04 Z" style="fill: rgb(0, 36, 211); fill-opacity: 1; fill-rule: nonzero; stroke: none; stroke-width: 16.5608;"/>
</svg>