<?xml version="1.0" encoding="utf-8"?>
<svg viewBox="0 0 500 500" xmlns="http://www.w3.org/2000/svg">
  <g transform="matrix(17.223631, 0, 0, 17.223631, 107.34761, 84.024017)" style="">
    <path d="M 13.2 18.57 L 19.1 12.67 C 19.99 11.78 21.44 11.78 22.33 12.67 C 23.22 13.56 23.22 15.01 22.33 15.9 L 16.43 21.8 C 16.09 22.15 15.65 22.39 15.18 22.51 L 13.35 22.97 C 13.3 22.98 13.25 22.99 13.2 23 C 12.61 23.2 10.22 23.57 9.37 22.91 C 8.8 22.46 8.91 21.57 9.16 21.09 C 9.2 21.01 9.14 20.91 9.05 20.92 C 8.39 21.03 7.81 21.37 7.23 21.72 C 6.44 22.19 5.66 22.66 4.68 22.54 C 3.7 22.41 3.21 21.81 2.97 21.28 C 2.87 21.07 3.15 20.88 3.35 20.99 C 3.82 21.25 4.46 21.49 4.99 21.37 C 5.36 21.29 5.89 20.92 6.48 20.5 C 7.55 19.74 8.82 18.85 9.77 19.23 C 10.61 19.57 11.23 20.38 10.8 21.34 C 10.75 21.46 10.8 21.61 10.93 21.64 C 11.35 21.73 11.71 21.7 12.06 21.53 L 12.49 19.82 C 12.61 19.35 12.85 18.92 13.2 18.57 Z" style="fill: rgb(33, 27, 142);"/>
  </g>
  <g transform="matrix(17.233257, 0, 0, 17.233257, 28.98925, 13.958553)" style="">
    <g/>
    <g>
      <path d="M 18.39 7.12 L 18.39 0.94 L 14.89 0.94 L 14.89 3.98 L 10.23 -0.22 L -1.43 10.27 L 2.07 10.27 L 2.07 19.6 L 7.9 19.6 L 7.9 12.61 L 12.56 12.61 L 12.56 19.6 L 18.39 19.6 L 18.39 10.27 L 21.89 10.27 L 18.39 7.12 Z" style="fill: rgb(60, 50, 254);"/>
    </g>
  </g>
</svg>